<?xml version="1.0" encoding="utf-8"?>
<!-- Generator: Adobe Illustrator 18.0.0, SVG Export Plug-In . SVG Version: 6.00 Build 0)  -->
<!DOCTYPE svg PUBLIC "-//W3C//DTD SVG 1.1//EN" "http://www.w3.org/Graphics/SVG/1.1/DTD/svg11.dtd">
<svg version="1.1" id="Слой_1" xmlns="http://www.w3.org/2000/svg" xmlns:xlink="http://www.w3.org/1999/xlink" x="0px" y="0px"
	 viewBox="0 83 768 865" enable-background="new 0 83 768 865" xml:space="preserve">
<path fill="#000000"      d="
	M506.1,103.6c0,0-9.6-13.3-28.1-9.6c0,0-86.5,6.1-170.7-0.6c0,0-12.6-4.5-26.6,10.3c0,0-113.1,42.9-145.6,56.9
	c0,0-44.3,7.4-73.2,98.3c0,0-37,107.2-55.4,130.8c0,0-14,20.7,34.7,44.3c0,0,62.1,34.7,88,22.2l22.2-27.3c0,0,17.7,17,12.6,111.6
	c0,0-14.8,170.7-4.4,216.6c0,0-31,104.2-23.7,126.4c0,0-5.9,37.7-3,45.1c0,0,370.3,24.4,457.5,5.9c0,0,22.2-8.9,22.9-16.3
	c0,0-0.7-100.5-14.8-113.1c0,0-5.2-44.3-12.6-64.3c0,0,16.3-189.6,12.6-226c0,0,3.7-85.9,10.3-91.1c0,0,25.1,47.3,33.3,50.3
	c0,0,109.4-22.2,120.5-54c0,0-44.3-113.8-59.9-164.8c0,0-15.5-75.4-65.8-98.3C636.9,156.8,517.5,111.9,506.1,103.6z"/>
</svg>
